<svg id="Слой_3" data-name="Слой 3" xmlns="http://www.w3.org/2000/svg" viewBox="0 0 1920 107">
	<defs>
		<style>
			.cls-1{fill:#fff;}
		</style>
	</defs>
	<path class="cls-1" d="M.09,71.83c30.33,2.27,77,5.83,134.08,10.43,89.12,7.18,118.7,10.06,161.22,13.31,51.87,4,127.55,8.78,222,11.43H0Z" />
	<path class="cls-1" d="M1920,3.22q-18.33-1.71-38.26-2.61c-16.87-.74-33-.89-48.26-.61h-31.83q-58.86,2.4-119.74,6.09-66.35,4-130.17,9.39l-174,19L1213.91,57c-55.94,7.67-94,12.91-145.3,19-42.16,5-76.62,8.69-98.87,11l-87.65,7.56q-51.2,4.13-104.61,7Q696.39,106,619.91,107H1920Z" />
</svg>